<svg xmlns="http://www.w3.org/2000/svg" xmlns:xlink="http://www.w3.org/1999/xlink" width="200.706" height="109.556" viewBox="0 0 200.706 109.556">
  <defs>
    <clipPath id="clip-path">
      <rect id="Rectángulo_402529" data-name="Rectángulo 402529" width="150.431" height="69.157" fill="none"/>
    </clipPath>
  </defs>
  <g id="Grupo_1102434" data-name="Grupo 1102434" transform="translate(-1031.365 -138.688)">
    <g id="Grupo_1102429" data-name="Grupo 1102429" transform="translate(1031.865 189.079)">
      <ellipse id="Elipse_11513" data-name="Elipse 11513" cx="1.966" cy="1.966" rx="1.966" ry="1.966" transform="translate(0 54.732)" fill="none" stroke="#17014e" stroke-linecap="round" stroke-linejoin="round" stroke-width="1"/>
      <path id="Trazado_874476" data-name="Trazado 874476" d="M4.836,59.477c12.039-8.634,5.4-38.831,21.56-48.328C45.2.1,82.806,4.894,82.806,4.894" transform="translate(-0.904 -3.858)" fill="none" stroke="#17014e" stroke-linecap="round" stroke-linejoin="round" stroke-width="1"/>
    </g>
    <g id="Grupo_1102430" data-name="Grupo 1102430" transform="translate(12001.349 11946)">
      <g id="Grupo_1101663" data-name="Grupo 1101663" transform="translate(-10919.709 -11803.85)" opacity="0.09" style="mix-blend-mode: multiply;isolation: isolate">
        <g id="Grupo_1101662" data-name="Grupo 1101662">
          <g id="Grupo_1101661" data-name="Grupo 1101661" clip-path="url(#clip-path)">
            <path id="Trazado_874477" data-name="Trazado 874477" d="M218.521,101.595q-64.186.877-128.254-4.507a9.441,9.441,0,0,1-8.6-8.8c-1.162-17.6-1.1-30.749.806-47.35a9.451,9.451,0,0,1,9.426-8.372c43.435.227,86.887,1.158,130.626,4.02a9.428,9.428,0,0,1,8.8,9.665,448.288,448.288,0,0,1-3.6,47.194,9.421,9.421,0,0,1-9.2,8.154" transform="translate(-80.89 -32.561)" fill="#17014e"/>
          </g>
        </g>
      </g>
      <path id="Trazado_874478" data-name="Trazado 874478" d="M215.211,94.3q-64.093,3.576-128.33.889a9.439,9.439,0,0,1-8.966-8.435c-1.9-17.537-2.4-30.675-1.186-47.342a9.449,9.449,0,0,1,9.065-8.761c43.407-1.6,86.859-2.5,130.681-1.475a9.428,9.428,0,0,1,9.2,9.286,448.1,448.1,0,0,1-1.609,47.3,9.423,9.423,0,0,1-8.851,8.534" transform="translate(-11000.149 -11836.055)" fill="#fff"/>
      <path id="Trazado_874479" data-name="Trazado 874479" d="M224.488,88.415a16.792,16.792,0,0,1-8.442,6c-4.4,1.475-9.135,1.554-13.778,1.619q-49.471.694-98.941,1.386c-5.265.073-10.6.14-15.7-1.146a25.624,25.624,0,0,1-9.594-4.621c.024.223.045.438.069.661a9.442,9.442,0,0,0,8.967,8.435q64.136,2.69,128.33-.889a9.423,9.423,0,0,0,8.851-8.534c.089-.972.162-1.944.243-2.916" transform="translate(-11000.332 -11841.619)" fill="#7f7aff"/>
      <path id="Trazado_874480" data-name="Trazado 874480" d="M174.759,97.057,103.8,98.05c-5.265.073-10.6.141-15.7-1.145a27.525,27.525,0,0,1-4.977-1.778" transform="translate(-11000.808 -11842.245)" fill="none" stroke="#17014e" stroke-linecap="round" stroke-linejoin="round" stroke-width="1"/>
      <path id="Trazado_874481" data-name="Trazado 874481" d="M213.007,96.823l-19.823.277" transform="translate(-11011.071 -11842.403)" fill="none" stroke="#17014e" stroke-linecap="round" stroke-linejoin="round" stroke-width="1"/>
      <path id="Trazado_874482" data-name="Trazado 874482" d="M236.642,90.279a17.731,17.731,0,0,1-7.045,4.313,29.115,29.115,0,0,1-6.269,1.288" transform="translate(-11013.883 -11841.793)" fill="none" stroke="#17014e" stroke-linecap="round" stroke-linejoin="round" stroke-width="1"/>
      <path id="Trazado_874483" data-name="Trazado 874483" d="M209.05,61.2V56.011l-.83.444V55.34l.23-.137.354-.212c.105-.064.216-.133.331-.209a2.794,2.794,0,0,0,.237-.169h1.187V61.2Z" transform="translate(-11012.474 -11838.467)" fill="#17014e"/>
      <path id="Trazado_874484" data-name="Trazado 874484" d="M214.506,61.319a1.792,1.792,0,0,1-1.367-.5,1.9,1.9,0,0,1-.479-1.362V56.416a2.037,2.037,0,0,1,.462-1.41,2.1,2.1,0,0,1,2.759,0,2.039,2.039,0,0,1,.462,1.408v3.037a1.889,1.889,0,0,1-.484,1.354,1.772,1.772,0,0,1-1.354.512m0-1.354q.306,0,.306-.559V56.323c0-.017,0-.046,0-.085a.6.6,0,0,0-.012-.093l-.022-.088a.234.234,0,0,0-.038-.083c-.016-.02-.034-.041-.053-.062a.173.173,0,0,0-.075-.046.357.357,0,0,0-.1-.014.345.345,0,0,0-.127.022.172.172,0,0,0-.087.073c-.022.034-.04.065-.054.093a.324.324,0,0,0-.029.119c-.005.052-.008.088-.008.11v3.136q0,.559.306.559" transform="translate(-11012.888 -11838.456)" fill="#17014e"/>
      <path id="Trazado_874485" data-name="Trazado 874485" d="M219.423,61.319a1.793,1.793,0,0,1-1.367-.5,1.9,1.9,0,0,1-.479-1.362V56.416a2.037,2.037,0,0,1,.462-1.41,2.1,2.1,0,0,1,2.759,0,2.039,2.039,0,0,1,.462,1.408v3.037a1.889,1.889,0,0,1-.484,1.354,1.772,1.772,0,0,1-1.354.512m0-1.354q.306,0,.306-.559V56.323c0-.017,0-.046,0-.085a.6.6,0,0,0-.012-.093l-.022-.088a.233.233,0,0,0-.038-.083c-.016-.02-.034-.041-.053-.062a.173.173,0,0,0-.075-.046.358.358,0,0,0-.1-.014.348.348,0,0,0-.127.022.173.173,0,0,0-.087.073c-.022.034-.039.065-.054.093a.343.343,0,0,0-.029.119c-.005.052-.008.088-.008.11v3.136q0,.559.306.559" transform="translate(-11013.347 -11838.456)" fill="#17014e"/>
      <path id="Trazado_874486" data-name="Trazado 874486" d="M213.9,47.7c-.948.97-1.918,1.92-2.912,2.827a.385.385,0,0,1-.491.021,19.976,19.976,0,0,1-2.593-2.373.382.382,0,0,1,0-.519c.9-.984,1.8-1.973,2.684-3.035-.888-.79-2.427-2.171-3.041-2.755a.383.383,0,0,1-.016-.539c.812-.873,1.769-1.83,2.632-2.709a.382.382,0,0,1,.529-.016c.968.87,1.943,1.741,3.006,2.64a28.75,28.75,0,0,1,2.7-2.793.385.385,0,0,1,.489-.018,20.759,20.759,0,0,1,2.592,2.358.385.385,0,0,1,.023.5c-.8,1.035-1.668,2.028-2.634,3.068,1,.889,1.992,1.777,3.007,2.717a.384.384,0,0,1,.018.545l-2.574,2.723a.383.383,0,0,1-.538.018Z" transform="translate(-11012.399 -11836.95)" fill="#7f7aff"/>
      <path id="Trazado_874487" data-name="Trazado 874487" d="M184.631,50.316h-63.24a3.243,3.243,0,0,1,0-6.486h63.24a3.243,3.243,0,1,1,0,6.486" transform="translate(-11004.074 -11837.462)" fill="#7f7aff"/>
      <path id="Trazado_874488" data-name="Trazado 874488" d="M171.814,45.117h7.671a2.076,2.076,0,1,1,0,4.151h-7.671a2.076,2.076,0,0,1,0-4.151" transform="translate(-11008.885 -11837.582)" fill="#17014e"/>
      <path id="Trazado_874489" data-name="Trazado 874489" d="M174.11,61.265a2.236,2.236,0,0,1-.875-.155,1.36,1.36,0,0,1-.581-.444A1.937,1.937,0,0,1,172.34,60a3.118,3.118,0,0,1-.092-.784V59.15a2.336,2.336,0,0,1,.194-.9,1.1,1.1,0,0,1,.552-.578,1.475,1.475,0,0,1-.443-.552,2.076,2.076,0,0,1-.191-.87v-.084a1.586,1.586,0,0,1,1.75-1.725,1.71,1.71,0,0,1,1.307.478,1.74,1.74,0,0,1,.427,1.247v.084a2.2,2.2,0,0,1-.19.881,1.359,1.359,0,0,1-.432.541,1.137,1.137,0,0,1,.553.579,2.268,2.268,0,0,1,.2.9v.108a3.25,3.25,0,0,1-.08.745,1.872,1.872,0,0,1-.313.663,1.386,1.386,0,0,1-.589.444,2.278,2.278,0,0,1-.883.155m0-1.091a.322.322,0,0,0,.126-.024.224.224,0,0,0,.1-.077c.024-.036.047-.071.065-.1a.445.445,0,0,0,.044-.139c.01-.057.019-.105.026-.141a1.5,1.5,0,0,0,.013-.151c0-.065,0-.11,0-.133v-.123q0-.116,0-.234c0-.078-.006-.153-.01-.225a.935.935,0,0,0-.032-.2.767.767,0,0,0-.063-.161.287.287,0,0,0-.108-.108.322.322,0,0,0-.161-.039.343.343,0,0,0-.158.034.247.247,0,0,0-.105.112,1.047,1.047,0,0,0-.063.148.769.769,0,0,0-.034.2c-.007.088-.011.159-.013.211s0,.131,0,.236v.173q0,.049.008.158c.005.071.012.129.019.172a1.31,1.31,0,0,0,.041.153.474.474,0,0,0,.065.141.322.322,0,0,0,.1.087.272.272,0,0,0,.141.036m0-3.012q.326,0,.326-.953a1.069,1.069,0,0,0-.087-.48.268.268,0,0,0-.239-.17.278.278,0,0,0-.253.17,1.031,1.031,0,0,0-.09.476q0,.956.343.957" transform="translate(-11009.119 -11838.451)" fill="#17014e"/>
      <path id="Trazado_874490" data-name="Trazado 874490" d="M178.509,61.161v-5.2l-.833.446v-1.12c.024-.013.1-.059.231-.138l.355-.213c.106-.063.218-.133.333-.209a2.216,2.216,0,0,0,.237-.169h1.192v6.607Z" transform="translate(-11009.625 -11838.462)" fill="#17014e"/>
      <path id="Trazado_874491" data-name="Trazado 874491" d="M184.631,75.986h-63.24a3.243,3.243,0,0,1,0-6.486h63.24a3.243,3.243,0,1,1,0,6.486" transform="translate(-11004.074 -11839.855)" fill="#ffcf4e"/>
      <path id="Trazado_874492" data-name="Trazado 874492" d="M142.773,70.787h7.671a2.076,2.076,0,1,1,0,4.151h-7.671a2.076,2.076,0,0,1,0-4.151" transform="translate(-11006.177 -11839.976)" fill="#17014e"/>
      <path id="Trazado_874493" data-name="Trazado 874493" d="M144.59,87.033a2.512,2.512,0,0,1-.763-.105,1.519,1.519,0,0,1-.54-.289,1.335,1.335,0,0,1-.341-.464,2.388,2.388,0,0,1-.184-.6,4.455,4.455,0,0,1-.053-.725v-.235h1.507v.258a1.932,1.932,0,0,0,.085.7.314.314,0,0,0,.313.19.278.278,0,0,0,.283-.174,1.768,1.768,0,0,0,.072-.608,1.508,1.508,0,0,0-.13-.733.565.565,0,0,0-.52-.22h-.277v-.956h.25a.588.588,0,0,0,.54-.221,1.492,1.492,0,0,0,.137-.744,1.3,1.3,0,0,0-.09-.556.317.317,0,0,0-.308-.177.276.276,0,0,0-.281.185,1.563,1.563,0,0,0-.073.552v.405h-1.507v-.45a1.889,1.889,0,0,1,.494-1.4,1.852,1.852,0,0,1,1.364-.491,1.967,1.967,0,0,1,1.386.462,1.765,1.765,0,0,1,.5,1.355,1.976,1.976,0,0,1-.223.967.913.913,0,0,1-.546.488,1.259,1.259,0,0,1,.3.17,1.122,1.122,0,0,1,.241.274,1.306,1.306,0,0,1,.169.433,2.7,2.7,0,0,1,.061.609,3.179,3.179,0,0,1-.1.845,1.917,1.917,0,0,1-.316.661,1.374,1.374,0,0,1-.58.441,2.232,2.232,0,0,1-.863.153" transform="translate(-11006.364 -11840.851)" fill="#17014e"/>
      <path id="Trazado_874494" data-name="Trazado 874494" d="M149.494,87.045a2.521,2.521,0,0,1-.767-.1,1.44,1.44,0,0,1-.511-.273,1.158,1.158,0,0,1-.3-.451,2.246,2.246,0,0,1-.147-.571,5.519,5.519,0,0,1-.036-.7h1.445a3.956,3.956,0,0,0,.038.63.549.549,0,0,0,.126.295.322.322,0,0,0,.223.072h.044q.235-.016.291-.3a6.16,6.16,0,0,0,.056-1.022c0-.16-.006-.3-.018-.414a1.86,1.86,0,0,0-.063-.331.5.5,0,0,0-.138-.238.33.33,0,0,0-.227-.082.365.365,0,0,0-.306.145.99.99,0,0,0-.152.477H147.74l.152-3.882h3.16v1.211h-1.973L149,82.746a.605.605,0,0,1,.284-.176,1.972,1.972,0,0,1,.478-.115,1.577,1.577,0,0,1,.223-.016,1.129,1.129,0,0,1,.948.478,2.806,2.806,0,0,1,.423,1.69q0,.331-.019.588a4.363,4.363,0,0,1-.067.52,2.1,2.1,0,0,1-.135.454,1.773,1.773,0,0,1-.225.365,1.151,1.151,0,0,1-.334.28,1.752,1.752,0,0,1-.463.17,2.81,2.81,0,0,1-.615.062" transform="translate(-11006.833 -11840.863)" fill="#17014e"/>
      <path id="Trazado_874495" data-name="Trazado 874495" d="M209.05,86.865V81.68l-.83.444V81.009l.23-.137.354-.212c.105-.064.216-.133.331-.209a2.8,2.8,0,0,0,.237-.169h1.187v6.582Z" transform="translate(-11012.474 -11840.861)" fill="#17014e"/>
      <path id="Trazado_874496" data-name="Trazado 874496" d="M214.506,86.989a1.793,1.793,0,0,1-1.367-.5,1.9,1.9,0,0,1-.479-1.362V82.086a2.037,2.037,0,0,1,.462-1.41,2.1,2.1,0,0,1,2.759,0,2.039,2.039,0,0,1,.462,1.408v3.037a1.889,1.889,0,0,1-.484,1.354,1.772,1.772,0,0,1-1.354.512m0-1.354q.306,0,.306-.559V81.993c0-.017,0-.046,0-.085a.6.6,0,0,0-.012-.093l-.022-.088a.234.234,0,0,0-.038-.083c-.016-.02-.034-.041-.053-.062a.173.173,0,0,0-.075-.046.357.357,0,0,0-.1-.014.345.345,0,0,0-.127.022.172.172,0,0,0-.087.073c-.022.034-.04.065-.054.093a.324.324,0,0,0-.029.119c-.005.052-.008.088-.008.11v3.136q0,.559.306.559" transform="translate(-11012.888 -11840.85)" fill="#17014e"/>
      <path id="Trazado_874497" data-name="Trazado 874497" d="M219.423,86.989a1.793,1.793,0,0,1-1.367-.5,1.9,1.9,0,0,1-.479-1.362V82.086a2.037,2.037,0,0,1,.462-1.41,2.1,2.1,0,0,1,2.759,0,2.039,2.039,0,0,1,.462,1.408v3.037a1.889,1.889,0,0,1-.484,1.354,1.772,1.772,0,0,1-1.354.512m0-1.354q.306,0,.306-.559V81.993c0-.017,0-.046,0-.085a.6.6,0,0,0-.012-.093l-.022-.088a.233.233,0,0,0-.038-.083c-.016-.02-.034-.041-.053-.062a.174.174,0,0,0-.075-.046.358.358,0,0,0-.1-.014.348.348,0,0,0-.127.022.173.173,0,0,0-.087.073c-.022.034-.039.065-.054.093a.343.343,0,0,0-.029.119c-.005.052-.008.088-.008.11v3.136q0,.559.306.559" transform="translate(-11013.347 -11840.85)" fill="#17014e"/>
      <line id="Línea_3832" data-name="Línea 3832" y2="5.738" transform="translate(-10803.562 -11768.28)" fill="none" stroke="#17014e" stroke-linecap="round" stroke-linejoin="round" stroke-width="1"/>
      <line id="Línea_3833" data-name="Línea 3833" y1="3.492" x2="3.06" transform="translate(-10805.092 -11767.157)" fill="none" stroke="#17014e" stroke-linecap="round" stroke-linejoin="round" stroke-width="1"/>
      <line id="Línea_3834" data-name="Línea 3834" y2="5.738" transform="translate(-10792.907 -11768.28)" fill="none" stroke="#17014e" stroke-linecap="round" stroke-linejoin="round" stroke-width="1"/>
      <line id="Línea_3835" data-name="Línea 3835" y1="3.492" x2="3.06" transform="translate(-10794.438 -11767.157)" fill="none" stroke="#17014e" stroke-linecap="round" stroke-linejoin="round" stroke-width="1"/>
      <line id="Línea_3836" data-name="Línea 3836" x2="10.654" transform="translate(-10803.562 -11765.411)" fill="none" stroke="#17014e" stroke-linecap="round" stroke-linejoin="round" stroke-width="1"/>
      <path id="Trazado_874498" data-name="Trazado 874498" d="M101.73,48.991c-.583.6-1.179,1.181-1.79,1.737a.236.236,0,0,1-.3.014,12.4,12.4,0,0,1-1.594-1.459.235.235,0,0,1,0-.318c.554-.6,1.106-1.213,1.648-1.866-.545-.485-1.492-1.334-1.869-1.692a.235.235,0,0,1-.01-.331c.5-.537,1.087-1.125,1.618-1.665a.235.235,0,0,1,.325-.011c.595.534,1.194,1.07,1.848,1.623a17.6,17.6,0,0,1,1.662-1.716.235.235,0,0,1,.3-.011,12.724,12.724,0,0,1,1.593,1.449.236.236,0,0,1,.015.306c-.491.637-1.026,1.247-1.619,1.886.612.547,1.224,1.093,1.848,1.67a.235.235,0,0,1,.011.335l-1.581,1.673a.236.236,0,0,1-.331.012Z" transform="translate(-11002.172 -11837.407)" fill="#7f7aff"/>
      <path id="Trazado_874499" data-name="Trazado 874499" d="M102.214,61.319a1.793,1.793,0,0,1-1.367-.5,1.9,1.9,0,0,1-.479-1.362V56.416a2.037,2.037,0,0,1,.462-1.41,2.1,2.1,0,0,1,2.759,0,2.039,2.039,0,0,1,.462,1.408v3.037a1.889,1.889,0,0,1-.484,1.354,1.772,1.772,0,0,1-1.354.512m0-1.354q.306,0,.306-.559V56.323c0-.017,0-.046,0-.085a.733.733,0,0,0-.012-.093l-.022-.088a.233.233,0,0,0-.038-.083c-.016-.02-.034-.041-.053-.062a.173.173,0,0,0-.075-.046.357.357,0,0,0-.1-.014.345.345,0,0,0-.127.022.173.173,0,0,0-.087.073c-.022.034-.039.065-.054.093a.324.324,0,0,0-.029.119c-.005.052-.008.088-.008.11v3.136q0,.559.306.559" transform="translate(-11002.416 -11838.456)" fill="#17014e"/>
      <line id="Línea_3837" data-name="Línea 3837" y2="5.738" transform="translate(-10902.346 -11770.094)" fill="none" stroke="#17014e" stroke-linecap="round" stroke-linejoin="round" stroke-width="1"/>
      <line id="Línea_3838" data-name="Línea 3838" y1="3.492" x2="3.06" transform="translate(-10903.876 -11768.971)" fill="none" stroke="#17014e" stroke-linecap="round" stroke-linejoin="round" stroke-width="1"/>
      <line id="Línea_3839" data-name="Línea 3839" y2="5.738" transform="translate(-10898.038 -11770.094)" fill="none" stroke="#17014e" stroke-linecap="round" stroke-linejoin="round" stroke-width="1"/>
      <line id="Línea_3840" data-name="Línea 3840" y1="3.492" x2="3.06" transform="translate(-10899.568 -11768.971)" fill="none" stroke="#17014e" stroke-linecap="round" stroke-linejoin="round" stroke-width="1"/>
      <line id="Línea_3841" data-name="Línea 3841" x2="4.307" transform="translate(-10902.346 -11767.225)" fill="none" stroke="#17014e" stroke-linecap="round" stroke-linejoin="round" stroke-width="1"/>
      <path id="Trazado_874500" data-name="Trazado 874500" d="M102.214,86.989a1.793,1.793,0,0,1-1.367-.5,1.9,1.9,0,0,1-.479-1.362V82.086a2.037,2.037,0,0,1,.462-1.41,2.1,2.1,0,0,1,2.759,0,2.039,2.039,0,0,1,.462,1.408v3.037a1.889,1.889,0,0,1-.484,1.354,1.772,1.772,0,0,1-1.354.512m0-1.354q.306,0,.306-.559V81.993c0-.017,0-.046,0-.085a.733.733,0,0,0-.012-.093l-.022-.088a.233.233,0,0,0-.038-.083c-.016-.02-.034-.041-.053-.062a.173.173,0,0,0-.075-.046.357.357,0,0,0-.1-.014.345.345,0,0,0-.127.022.173.173,0,0,0-.087.073c-.022.034-.039.065-.054.093a.324.324,0,0,0-.029.119c-.005.052-.008.088-.008.11v3.136q0,.559.306.559" transform="translate(-11002.416 -11840.85)" fill="#17014e"/>
    </g>
  </g>
</svg>
