<svg xmlns="http://www.w3.org/2000/svg" xmlns:xlink="http://www.w3.org/1999/xlink" width="60" height="60" viewBox="0 0 60 60">
  <defs>
    <clipPath id="clip-path">
      <rect id="Rectángulo_402809" data-name="Rectángulo 402809" width="60" height="56.766" transform="translate(0 0)" fill="none"/>
    </clipPath>
  </defs>
  <g id="Grupo_1102728" data-name="Grupo 1102728" transform="translate(-1182.667 -2698)">
    <rect id="Rectángulo_402781" data-name="Rectángulo 402781" width="60" height="60" transform="translate(1182.667 2698)" fill="none"/>
    <g id="Grupo_1102725" data-name="Grupo 1102725" transform="translate(1182.667 2698)">
      <g id="Grupo_1102724" data-name="Grupo 1102724" clip-path="url(#clip-path)">
        <path id="Trazado_875419" data-name="Trazado 875419" d="M47.932.88H39.844a.136.136,0,0,0-.137.136V2.5L25.16,4.114h-.028L8.968,2.5V1.016A.136.136,0,0,0,8.832.88H1.015a.136.136,0,0,0-.136.136V55.75a.136.136,0,0,0,.136.136H8.968L30,52.651l21.032,3.235h7.953a.136.136,0,0,0,.136-.136V12.069a.137.137,0,0,0-.04-.1L48.028.92a.133.133,0,0,0-.1-.04" fill="#7f7aff"/>
        <path id="Trazado_875420" data-name="Trazado 875420" d="M.879,53.542v2.207a.136.136,0,0,0,.136.137H8.968L24.2,53.543Z" fill="#6662cc"/>
        <path id="Trazado_875421" data-name="Trazado 875421" d="M59.081,11.972,48.028.919a.136.136,0,0,0-.1-.039H45.645L51.8,7.033a9,9,0,0,1,2.636,6.361v31.15a9,9,0,0,1-9,9H35.8l15.235,2.344h7.952a.137.137,0,0,0,.137-.137V12.068A.133.133,0,0,0,59.081,11.972Z" fill="#4c4999"/>
        <rect id="Rectángulo_402806" data-name="Rectángulo 402806" width="11.325" height="17.796" transform="translate(8.968 2.498)" fill="#bf4adb"/>
        <path id="Trazado_875422" data-name="Trazado 875422" d="M37.927,20.294H17.22a1.78,1.78,0,0,1-1.78-1.78V2.5H39.707V18.514a1.78,1.78,0,0,1-1.78,1.78" fill="#fdeff5"/>
        <rect id="Rectángulo_402807" data-name="Rectángulo 402807" width="4.854" height="11.325" transform="translate(30 5.733)" fill="#bf4adb"/>
        <rect id="Rectángulo_402808" data-name="Rectángulo 402808" width="42.064" height="32.357" transform="translate(8.968 23.53)" fill="#f2fbff"/>
        <path id="Trazado_875423" data-name="Trazado 875423" d="M45.436,53.542H8.968v2.344H51.032v-4.3a8.957,8.957,0,0,1-5.6,1.952" fill="#dff6fd"/>
        <path id="Trazado_875424" data-name="Trazado 875424" d="M38.008,29.984l-10.3,10.3-5.72-5.72-4.576,4.576,10.3,10.3L42.584,34.56Z" fill="#ffca00"/>
        <path id="Trazado_875425" data-name="Trazado 875425" d="M59.7,11.351,48.65.3a1.008,1.008,0,0,0-.718-.3H39.844a1.017,1.017,0,0,0-1.016,1.015v.6H9.847v-.6A1.017,1.017,0,0,0,8.831,0H1.015A1.016,1.016,0,0,0,0,1.016V55.75a1.016,1.016,0,0,0,1.015,1.016H58.984A1.017,1.017,0,0,0,60,55.75V12.069a1.007,1.007,0,0,0-.3-.718M17.22,19.415a.9.9,0,0,1-.9-.9V10.4a.879.879,0,0,0-1.758,0v8.114a2.64,2.64,0,0,0,.158.9H9.847V3.376H14.56V6.3a.879.879,0,1,0,1.758,0V3.376h22.51V18.513a.9.9,0,0,1-.9.9ZM58.242,55.008H51.911V34.4a.879.879,0,0,0-1.758,0V55.007H9.847v-30.6H50.153V30.3a.879.879,0,1,0,1.757,0V23.529a.878.878,0,0,0-.878-.878H8.968a.878.878,0,0,0-.879.878V55.007H1.758V1.758H8.089V20.294a.879.879,0,0,0,.879.879H37.926a2.664,2.664,0,0,0,2.66-2.66V1.758h7.038L58.242,12.376Z"/>
        <path id="Trazado_875426" data-name="Trazado 875426" d="M34.853,4.855H30a.879.879,0,0,0-.879.878V17.058a.879.879,0,0,0,.879.879h4.853a.878.878,0,0,0,.879-.879V5.733A.878.878,0,0,0,34.853,4.855Zm-.878,11.324h-3.1V6.612h3.1Z"/>
        <path id="Trazado_875427" data-name="Trazado 875427" d="M5.732,48.536a.879.879,0,0,0-.879.879v3.236a.879.879,0,0,0,1.758,0V49.415a.879.879,0,0,0-.879-.879"/>
        <path id="Trazado_875428" data-name="Trazado 875428" d="M54.268,53.529a.879.879,0,0,0,.878-.879V49.414a.879.879,0,0,0-1.757,0V52.65A.879.879,0,0,0,54.268,53.529Z"/>
        <path id="Trazado_875429" data-name="Trazado 875429" d="M38.63,29.362a.879.879,0,0,0-1.243,0l-9.674,9.675-5.1-5.1a.879.879,0,0,0-1.243,0L16.8,38.514a.879.879,0,0,0,0,1.243L20.9,43.865a.879.879,0,0,0,1.243-1.243l-3.487-3.486L21.993,35.8l5.1,5.1a.878.878,0,0,0,1.243,0l9.673-9.674L41.34,34.56,27.712,48.189l-2.631-2.632A.879.879,0,0,0,23.838,46.8l3.253,3.253a.879.879,0,0,0,1.243,0L43.206,35.181a.879.879,0,0,0,0-1.243Z"/>
      </g>
    </g>
  </g>
</svg>
