<svg xmlns="http://www.w3.org/2000/svg" xmlns:xlink="http://www.w3.org/1999/xlink" width="130.931" height="128.385" viewBox="0 0 130.931 128.385">
  <defs>
    <clipPath id="clip-path">
      <rect id="Rectángulo_402504" data-name="Rectángulo 402504" width="77.665" height="107.117" fill="none"/>
    </clipPath>
  </defs>
  <g id="Grupo_1102433" data-name="Grupo 1102433" transform="translate(10590.398 11937.777)">
    <g id="Grupo_1102426" data-name="Grupo 1102426">
      <g id="Grupo_1101626" data-name="Grupo 1101626" transform="translate(-10587.065 -11935.923)" opacity="0.09" style="mix-blend-mode: multiply;isolation: isolate">
        <g id="Grupo_1101625" data-name="Grupo 1101625">
          <g id="Grupo_1101624" data-name="Grupo 1101624" clip-path="url(#clip-path)">
            <path id="Trazado_874403" data-name="Trazado 874403" d="M123.282,109.7q-28.1-.5-56.085-3.41a8.34,8.34,0,0,1-7.469-7.809A483.555,483.555,0,0,1,62.518,9.957a8.329,8.329,0,0,1,8.09-7.282A367.032,367.032,0,0,1,129.425,5.85a8.3,8.3,0,0,1,7.1,8.687c-1.583,28.749-3.168,57.569-4.781,87.291a8.326,8.326,0,0,1-8.461,7.871" transform="translate(-58.871 -2.584)" fill="#17014e"/>
          </g>
        </g>
      </g>
      <path id="Trazado_874404" data-name="Trazado 874404" d="M121.378,105.249q-28.085.984-56.187-.452a8.34,8.34,0,0,1-7.869-7.405A483.579,483.579,0,0,1,55.445,8.846a8.33,8.33,0,0,1,7.7-7.7,367.059,367.059,0,0,1,58.9.073,8.3,8.3,0,0,1,7.546,8.3c-.067,28.792-.132,57.656-.177,87.422a8.326,8.326,0,0,1-8.035,8.305" transform="translate(-10644.627 -11937.777)" fill="#fff"/>
      <path id="Trazado_874405" data-name="Trazado 874405" d="M130.86,132.331a13.051,13.051,0,0,1-6.773,5.527c-3.857,1.443-8.081,1.451-12.2,1.44l-35.461-.089c-5.712-.014-11.693-.106-17.083-2.22a8.347,8.347,0,0,0,7.29,5.15q28.067,1.436,56.186.452a8.328,8.328,0,0,0,8.035-8.306c0-.653,0-1.3,0-1.954" transform="translate(-10646.07 -11975.119)" fill="#7f7aff"/>
      <path id="Trazado_874406" data-name="Trazado 874406" d="M119.781,141.263a63.016,63.016,0,0,1-6.77.23L77.549,141.4c-4.721-.012-9.626-.077-14.229-1.293" transform="translate(-10647.192 -11977.314)" fill="none" stroke="#17014e" stroke-linecap="round" stroke-linejoin="round" stroke-width="1"/>
      <path id="Trazado_874407" data-name="Trazado 874407" d="M154.247,135.97a14.063,14.063,0,0,1-4.709,2.915" transform="translate(-10671.521 -11976.146)" fill="none" stroke="#17014e" stroke-linecap="round" stroke-linejoin="round" stroke-width="1"/>
      <path id="Trazado_874408" data-name="Trazado 874408" d="M92.55,98.683a67.676,67.676,0,0,1,.355,13.855,4.21,4.21,0,0,1-3.651,3.834,61.034,61.034,0,0,1-12,.357,4.208,4.208,0,0,1-3.889-3.833,73.367,73.367,0,0,1,.174-14.437,4.234,4.234,0,0,1,3.819-3.709,48.5,48.5,0,0,1,11.551.3,4.248,4.248,0,0,1,3.644,3.631" transform="translate(-10649.948 -11964.454)" fill="#ef5e9c"/>
      <path id="Trazado_874409" data-name="Trazado 874409" d="M97.891,126.384a35.447,35.447,0,0,1-4.637-.039,1.688,1.688,0,0,1-1.527-1.464,19.036,19.036,0,0,1-.149-3.869,1.7,1.7,0,0,1,1.563-1.572,34.327,34.327,0,0,1,4.6-.07,1.706,1.706,0,0,1,1.6,1.463,18.49,18.49,0,0,1,.1,4,1.68,1.68,0,0,1-1.56,1.553" transform="translate(-10655.155 -11971.448)" fill="#fff"/>
      <path id="Trazado_874410" data-name="Trazado 874410" d="M97.891,126.384a35.447,35.447,0,0,1-4.637-.039,1.688,1.688,0,0,1-1.527-1.464,19.036,19.036,0,0,1-.149-3.869,1.7,1.7,0,0,1,1.563-1.572,34.327,34.327,0,0,1,4.6-.07,1.706,1.706,0,0,1,1.6,1.463,18.49,18.49,0,0,1,.1,4A1.68,1.68,0,0,1,97.891,126.384Z" transform="translate(-10655.155 -11971.448)" fill="none" stroke="#17014e" stroke-linecap="round" stroke-linejoin="round" stroke-width="1"/>
      <path id="Trazado_874411" data-name="Trazado 874411" d="M123.472,111s-.577-1.932.492-3.067a3.423,3.423,0,0,1,3.367-.8,3.459,3.459,0,0,0-3.788-2.033c-2.9.351-2.692,4.822-.07,5.9" transform="translate(-10663.591 -11967.425)" fill="#17014e"/>
      <path id="Trazado_874412" data-name="Trazado 874412" d="M111.262,110.874s2.913,11.263,13.127,9.3c10.337-1.989,11.165-12.444,7.111-18.1,0,0-.376,7.323-8.582,10.149s-11.657-1.344-11.657-1.344" transform="translate(-10660.721 -11966.579)" fill="#17014e"/>
      <path id="Trazado_874413" data-name="Trazado 874413" d="M125.376,95.166a11.174,11.174,0,1,0,7.594,11.353,11.248,11.248,0,0,0-7.594-11.353M123.6,107.326a2.419,2.419,0,1,1-.267-3.56,2.457,2.457,0,0,1,.267,3.56" transform="translate(-10660.566 -11964.479)" fill="#ef5e9c"/>
      <path id="Trazado_874414" data-name="Trazado 874414" d="M125.206,121.656l-1.782-8.688a2.471,2.471,0,0,1-2.1-.521,2.182,2.182,0,0,1-.194-.214l-6.541,5.925a11.567,11.567,0,0,0,10.616,3.5" transform="translate(-10661.659 -11969.447)" fill="#ffaa08"/>
      <path id="Trazado_874415" data-name="Trazado 874415" d="M112.554,116.39a10.367,10.367,0,0,0,.962,1.217l6.541-5.925a2.457,2.457,0,0,1-.576-1.4c-2.609.26-6.684.67-8.7.89a11.008,11.008,0,0,0,1.772,5.216" transform="translate(-10660.585 -11968.897)" fill="#ffbad7"/>
      <path id="Trazado_874416" data-name="Trazado 874416" d="M127.011,95.165a11.526,11.526,0,0,0-10.5,1.881l5.466,6.732a2.567,2.567,0,0,1,2.423-.321l3.392-7.991c-.256-.107-.513-.211-.781-.3" transform="translate(-10662.201 -11964.479)" fill="#3a257a"/>
      <path id="Trazado_874417" data-name="Trazado 874417" d="M130.894,95.8l-3.392,7.991a2.184,2.184,0,0,1,.565.308,2.312,2.312,0,0,1,.555.646l7.462-4.444a11.027,11.027,0,0,0-5.19-4.5" transform="translate(-10665.303 -11964.81)" fill="#5dc3de"/>
      <path id="Trazado_874418" data-name="Trazado 874418" d="M135.557,114.852a11.186,11.186,0,0,0,2.522-6.232,11.31,11.31,0,0,0-1.624-6.552l-7.462,4.444a2.484,2.484,0,0,1-.174,2.763Z" transform="translate(-10665.675 -11966.579)" fill="#7f7aff"/>
      <path id="Trazado_874419" data-name="Trazado 874419" d="M135.014,117.685l-6.737-5.577c-.039.05-.071.106-.114.151a2.346,2.346,0,0,1-1.267.672l1.782,8.688c.2-.04.395-.079.59-.131a11.214,11.214,0,0,0,5.745-3.8" transform="translate(-10665.132 -11969.412)" fill="#d5603e"/>
      <path id="Trazado_874420" data-name="Trazado 874420" d="M113.772,98.019a10.2,10.2,0,0,0-.828.955,11.445,11.445,0,0,0-2.054,8.831M122.07,94.623a11.791,11.791,0,0,0-5.553,1.362" transform="translate(-10660.566 -11964.479)" fill="none" stroke="#17014e" stroke-linecap="round" stroke-linejoin="round" stroke-width="1"/>
      <path id="Trazado_874421" data-name="Trazado 874421" d="M77.692,68.986H73.01a2,2,0,0,0-2,2v4.681a2,2,0,0,0,2,2h4.682a2,2,0,0,0,2-2V70.982a2,2,0,0,0-2-2" transform="translate(-10649.363 -11957.244)" fill="#ee3a59"/>
      <path id="Trazado_874422" data-name="Trazado 874422" d="M98.273,68.986H93.591a2,2,0,0,0-2,2v4.681a2,2,0,0,0,2,2h4.682a2,2,0,0,0,2-2V70.982a2,2,0,0,0-2-2" transform="translate(-10655.171 -11957.244)" fill="#d6ceff"/>
      <path id="Trazado_874423" data-name="Trazado 874423" d="M77.692,45.594H73.01a2,2,0,0,0-2,2v4.681a2,2,0,0,0,2,2h4.682a2,2,0,0,0,2-2V47.59a2,2,0,0,0-2-2" transform="translate(-10649.363 -11950.644)" fill="#ffaa08"/>
      <path id="Trazado_874424" data-name="Trazado 874424" d="M98.273,45.594H93.591a2,2,0,0,0-2,2v4.681a2,2,0,0,0,2,2h4.682a2,2,0,0,0,2-2V47.59a2,2,0,0,0-2-2" transform="translate(-10655.171 -11950.644)" fill="#ef5e9c"/>
      <path id="Trazado_874425" data-name="Trazado 874425" d="M118.854,45.594h-4.682a2,2,0,0,0-2,2v4.681a2,2,0,0,0,2,2h4.682a2,2,0,0,0,2-2V47.59a2,2,0,0,0-2-2" transform="translate(-10660.979 -11950.644)" fill="#ffbad7"/>
      <path id="Trazado_874426" data-name="Trazado 874426" d="M139.435,45.594h-4.682a2,2,0,0,0-2,2v4.681a2,2,0,0,0,2,2h4.682a2,2,0,0,0,2-2V47.59a2,2,0,0,0-2-2" transform="translate(-10666.786 -11950.644)" fill="#39adcc"/>
      <path id="Trazado_874427" data-name="Trazado 874427" d="M77.692,22.2H73.01a2,2,0,0,0-2,2v4.682a2,2,0,0,0,2,2h4.682a2,2,0,0,0,2-2V24.2a2,2,0,0,0-2-2" transform="translate(-10649.363 -11944.043)" fill="#3a257a"/>
      <path id="Trazado_874428" data-name="Trazado 874428" d="M98.273,22.2H93.591a2,2,0,0,0-2,2v4.682a2,2,0,0,0,2,2h4.682a2,2,0,0,0,2-2V24.2a2,2,0,0,0-2-2" transform="translate(-10655.171 -11944.043)" fill="#5dc3de"/>
      <path id="Trazado_874429" data-name="Trazado 874429" d="M118.854,22.2h-4.682a2,2,0,0,0-2,2v4.682a2,2,0,0,0,2,2h4.682a2,2,0,0,0,2-2V24.2a2,2,0,0,0-2-2" transform="translate(-10660.979 -11944.043)" fill="#7f7aff"/>
      <path id="Trazado_874430" data-name="Trazado 874430" d="M139.435,22.2h-4.682a2,2,0,0,0-2,2v4.682a2,2,0,0,0,2,2h4.682a2,2,0,0,0,2-2V24.2a2,2,0,0,0-2-2" transform="translate(-10666.786 -11944.043)" fill="#d5603e"/>
    </g>
    <g id="Grupo_1102427" data-name="Grupo 1102427" transform="translate(-10537.966 -11858.888)">
      <circle id="Elipse_11511" data-name="Elipse 11511" cx="1.556" cy="1.556" r="1.556" transform="translate(74.886)" fill="none" stroke="#17014e" stroke-linecap="round" stroke-linejoin="round" stroke-width="1"/>
      <path id="Trazado_874402" data-name="Trazado 874402" d="M79.413,113.941C56.764,155.286,12.4,181.32,3.744,136.66" transform="translate(-3.744 -111.042)" fill="none" stroke="#17014e" stroke-linecap="round" stroke-linejoin="round" stroke-width="1"/>
    </g>
  </g>
</svg>
