<svg xmlns="http://www.w3.org/2000/svg" xmlns:xlink="http://www.w3.org/1999/xlink" width="57.641" height="49.721" viewBox="0 0 57.641 49.721">
  <defs>
    <clipPath id="clip-path">
      <rect id="Rectángulo_402549" data-name="Rectángulo 402549" width="49.176" height="37.623" fill="none"/>
    </clipPath>
    <clipPath id="clip-path-3">
      <rect id="Rectángulo_402546" data-name="Rectángulo 402546" width="48.655" height="30.082" fill="none"/>
    </clipPath>
    <clipPath id="clip-path-4">
      <rect id="Rectángulo_402547" data-name="Rectángulo 402547" width="11.841" height="7.235" fill="none"/>
    </clipPath>
  </defs>
  <g id="Grupo_1102432" data-name="Grupo 1102432" transform="translate(10.37) rotate(16)">
    <g id="Grupo_1101703" data-name="Grupo 1101703" clip-path="url(#clip-path)">
      <g id="Grupo_1101702" data-name="Grupo 1101702" transform="translate(0)">
        <g id="Grupo_1101701" data-name="Grupo 1101701" clip-path="url(#clip-path)">
          <g id="Grupo_1101697" data-name="Grupo 1101697" transform="translate(0 3.858)" opacity="0.09" style="mix-blend-mode: multiply;isolation: isolate">
            <g id="Grupo_1101696" data-name="Grupo 1101696">
              <g id="Grupo_1101695" data-name="Grupo 1101695" clip-path="url(#clip-path-3)">
                <path id="Trazado_874554" data-name="Trazado 874554" d="M1.2,29.2A30.337,30.337,0,0,1,5.566,10.508a5.46,5.46,0,0,1,5.265-2.536,131.733,131.733,0,0,1,19.2,3.668,5.477,5.477,0,0,1,4,4.8c.027.3.046.6.064.907a17.912,17.912,0,0,1,5.213,1.435,19.719,19.719,0,0,1,9.388,8.8,7.385,7.385,0,0,1,1.024,3.558,3.342,3.342,0,0,1-1.844,3.022,4.017,4.017,0,0,1-3.7-.742c-1.195-.83-2.162-1.951-3.345-2.8a4.553,4.553,0,0,0-4.09-.9,9.866,9.866,0,0,0-2.089,1.377A7.548,7.548,0,0,1,31.4,32.38a30.791,30.791,0,0,1-1.476,2.9A5.452,5.452,0,0,1,24.817,38,77.277,77.277,0,0,1,4.891,33.832,5.5,5.5,0,0,1,1.2,29.2" transform="translate(-1.07 -7.936)" fill="#17014e"/>
              </g>
            </g>
          </g>
          <path id="Trazado_874555" data-name="Trazado 874555" d="M29.722,20.462A30.342,30.342,0,0,1,35.614,2.2,5.46,5.46,0,0,1,41.071.106,131.814,131.814,0,0,1,59.9,5.35a5.476,5.476,0,0,1,3.592,5.116A31.98,31.98,0,0,1,57.844,28.9a5.45,5.45,0,0,1-5.318,2.286,77.241,77.241,0,0,1-19.513-5.8,5.5,5.5,0,0,1-3.291-4.925" transform="translate(-28.768 0)" fill="#fff"/>
          <path id="Trazado_874556" data-name="Trazado 874556" d="M59.742,53.659a1.108,1.108,0,1,1,1.038,1.619,1.167,1.167,0,0,1-1.038-1.619" transform="translate(-41.62 -27.292)" fill="#17014e"/>
          <path id="Trazado_874557" data-name="Trazado 874557" d="M39.779,27.073c1.724,4.073,3.476,8.279,3.508,12.7S41.2,48.94,37.122,50.656a8.437,8.437,0,0,1-11.5-9.631" transform="translate(-6.47 -13.911)" fill="none" stroke="#17014e" stroke-linecap="round" stroke-linejoin="round" stroke-width="1"/>
          <path id="Trazado_874558" data-name="Trazado 874558" d="M30.187,34.721c-1.363-5.842.421-12,3.176-17.332a9.25,9.25,0,0,1,1.974-2.807,3.6,3.6,0,0,1,3.133-.926,5.512,5.512,0,0,1,1.542,3.786,31.981,31.981,0,0,1-5.65,18.437,5.5,5.5,0,0,1-1.87,1.679,2.134,2.134,0,0,1-.714-.217,3.737,3.737,0,0,1-1.591-2.621" transform="translate(-5.285 -6.977)" fill="#17014e"/>
          <path id="Trazado_874559" data-name="Trazado 874559" d="M60.488,30.779q-1.5-.414-3-.892A42.67,42.67,0,0,1,63.115,2.8q1.758.432,3.492.907a38.065,38.065,0,0,0-6.119,27.078" transform="translate(-45.214 -1.436)" fill="#7f7aff"/>
          <path id="Trazado_874560" data-name="Trazado 874560" d="M2.984,23.444a15.678,15.678,0,0,1,12.371,1.49,19.721,19.721,0,0,1,8.628,9.55,7.381,7.381,0,0,1,.726,3.63,3.343,3.343,0,0,1-2.087,2.86,4.017,4.017,0,0,1-3.629-1.046C17.872,39,17,37.805,15.892,36.865a4.553,4.553,0,0,0-4-1.234,9.857,9.857,0,0,0-2.2,1.2,7.646,7.646,0,0,1-6.816.4A7.549,7.549,0,0,1,0,34.974a28.4,28.4,0,0,1,2.984-11.53" transform="translate(24.438 -11.697)" fill="#7f7aff"/>
          <g id="Grupo_1101700" data-name="Grupo 1101700" transform="translate(31.485 12.513)" opacity="0.6" style="mix-blend-mode: soft-light;isolation: isolate">
            <g id="Grupo_1101699" data-name="Grupo 1101699" transform="translate(0)">
              <g id="Grupo_1101698" data-name="Grupo 1101698" clip-path="url(#clip-path-4)">
                <path id="Trazado_874561" data-name="Trazado 874561" d="M14.741,25.776c6.617.913,10.734,5.405,8.537,6.971C21.516,34,20.141,29.655,15,29.293c-4.322-.3-3.492-3.963-.257-3.516" transform="translate(-12.032 -25.738)" fill="#fff"/>
              </g>
            </g>
          </g>
        </g>
      </g>
    </g>
  </g>
</svg>
