<svg xmlns="http://www.w3.org/2000/svg" xmlns:xlink="http://www.w3.org/1999/xlink" width="60" height="60" viewBox="0 0 60 60">
  <defs>
    <clipPath id="clip-path">
      <rect id="Rectángulo_402800" data-name="Rectángulo 402800" width="58.46" height="60" fill="none"/>
    </clipPath>
  </defs>
  <g id="Grupo_1102727" data-name="Grupo 1102727" transform="translate(-769.667 -2698)">
    <rect id="Rectángulo_402780" data-name="Rectángulo 402780" width="60" height="60" transform="translate(769.667 2698)" fill="none"/>
    <g id="Grupo_1102720" data-name="Grupo 1102720" transform="translate(770.667 2698)">
      <g id="Grupo_1102719" data-name="Grupo 1102719" clip-path="url(#clip-path)">
        <rect id="Rectángulo_402796" data-name="Rectángulo 402796" width="30.827" height="30.827" rx="1.214" transform="translate(11.863 10.326)" fill="#ddebfd"/>
        <path id="Trazado_875347" data-name="Trazado 875347" d="M41.476,10.326H37.96a1.214,1.214,0,0,1,1.214,1.214v28.4a1.213,1.213,0,0,1-1.214,1.214h3.516a1.213,1.213,0,0,0,1.214-1.214V11.54a1.214,1.214,0,0,0-1.214-1.214" fill="#bed9fd"/>
        <path id="Trazado_875348" data-name="Trazado 875348" d="M34.926,17.245a2.684,2.684,0,1,1-2.684,2.684,2.684,2.684,0,0,1,2.684-2.684" fill="#ffca00"/>
        <path id="Trazado_875349" data-name="Trazado 875349" d="M34.819,35.08l-8.542-9.8a1.928,1.928,0,0,0-2.906,0l-11.508,13.2V39.94a1.214,1.214,0,0,0,1.214,1.214h28.4A1.214,1.214,0,0,0,42.69,39.94V29.053l-6.708,6.094a.815.815,0,0,1-1.152-.055l-.011-.012" fill="#7f7aff"/>
        <path id="Trazado_875350" data-name="Trazado 875350" d="M39.175,32.247v7.692a1.214,1.214,0,0,1-1.214,1.214h3.516a1.216,1.216,0,0,0,1.214-1.214V29.052Z" fill="#6662cc"/>
        <rect id="Rectángulo_402797" data-name="Rectángulo 402797" width="4.97" height="4.97" rx="0.497" transform="translate(0.879 0.879)" fill="#ef5e9c"/>
        <path id="Trazado_875351" data-name="Trazado 875351" d="M.879,46.128V50.1a.5.5,0,0,0,.5.5H5.352a.5.5,0,0,0,.5-.5V46.128a.5.5,0,0,0-.5-.5H1.376a.5.5,0,0,0-.5.5" fill="#ef5e9c"/>
        <rect id="Rectángulo_402798" data-name="Rectángulo 402798" width="4.969" height="4.97" rx="0.497" transform="translate(45.632 0.879)" fill="#ef5e9c"/>
        <rect id="Rectángulo_402799" data-name="Rectángulo 402799" width="20.808" height="20.808" rx="1.291" transform="translate(36.773 38.313)" fill="#ffca00"/>
        <path id="Trazado_875352" data-name="Trazado 875352" d="M56.29,38.313H52.774A1.291,1.291,0,0,1,54.065,39.6V57.83a1.29,1.29,0,0,1-1.291,1.291H56.29a1.291,1.291,0,0,0,1.291-1.291V39.6a1.291,1.291,0,0,0-1.291-1.291" fill="#e1b200"/>
        <path id="Trazado_875353" data-name="Trazado 875353" d="M34.926,23.492a3.563,3.563,0,1,0-3.563-3.562,3.563,3.563,0,0,0,3.563,3.562m0-5.368a1.8,1.8,0,1,1-1.805,1.805,1.8,1.8,0,0,1,1.805-1.805"/>
        <path id="Trazado_875354" data-name="Trazado 875354" d="M5.352,0H1.376A1.378,1.378,0,0,0,0,1.376V5.352A1.378,1.378,0,0,0,1.376,6.728H5.352A1.378,1.378,0,0,0,6.728,5.352V1.376A1.378,1.378,0,0,0,5.352,0M4.97,4.97H1.758V1.758H4.97Z"/>
        <path id="Trazado_875355" data-name="Trazado 875355" d="M5.352,44.752H1.376A1.378,1.378,0,0,0,0,46.128V50.1A1.378,1.378,0,0,0,1.376,51.48H5.352A1.378,1.378,0,0,0,6.728,50.1V46.128a1.378,1.378,0,0,0-1.376-1.376m-.382,4.97H1.758V46.51H4.97Z"/>
        <path id="Trazado_875356" data-name="Trazado 875356" d="M46.129,6.727H50.1A1.376,1.376,0,0,0,51.48,5.352V1.376A1.377,1.377,0,0,0,50.1,0H46.129a1.377,1.377,0,0,0-1.376,1.376V5.352a1.376,1.376,0,0,0,1.376,1.375m.381-4.969h3.212V4.97H46.51Z"/>
        <path id="Trazado_875357" data-name="Trazado 875357" d="M31.742,47.237H29.506a.879.879,0,1,0,0,1.758h2.236a.879.879,0,0,0,0-1.758"/>
        <path id="Trazado_875358" data-name="Trazado 875358" d="M21.974,47.237H19.738a.879.879,0,1,0,0,1.758h2.236a.879.879,0,1,0,0-1.758Z"/>
        <path id="Trazado_875359" data-name="Trazado 875359" d="M12.206,47.237H9.97a.879.879,0,1,0,0,1.758h2.236a.879.879,0,1,0,0-1.758Z"/>
        <path id="Trazado_875360" data-name="Trazado 875360" d="M39.274,4.242H41.51a.879.879,0,1,0,0-1.758H39.274a.879.879,0,0,0,0,1.758"/>
        <path id="Trazado_875361" data-name="Trazado 875361" d="M29.506,4.242h2.236a.879.879,0,0,0,0-1.758H29.506a.879.879,0,0,0,0,1.758"/>
        <path id="Trazado_875362" data-name="Trazado 875362" d="M19.738,4.242h2.236a.879.879,0,0,0,0-1.758H19.738a.879.879,0,1,0,0,1.758"/>
        <path id="Trazado_875363" data-name="Trazado 875363" d="M9.97,4.242h2.236a.879.879,0,0,0,0-1.758H9.97a.879.879,0,1,0,0,1.758"/>
        <path id="Trazado_875364" data-name="Trazado 875364" d="M2.485,41.51a.879.879,0,1,0,1.758,0V39.274a.879.879,0,0,0-1.758,0Z"/>
        <path id="Trazado_875365" data-name="Trazado 875365" d="M2.485,31.742a.879.879,0,0,0,1.758,0V29.506a.879.879,0,0,0-1.758,0Z"/>
        <path id="Trazado_875366" data-name="Trazado 875366" d="M2.485,21.974a.879.879,0,0,0,1.758,0V19.738a.879.879,0,1,0-1.758,0Z"/>
        <path id="Trazado_875367" data-name="Trazado 875367" d="M3.364,13.085a.879.879,0,0,0,.879-.879V9.97a.879.879,0,1,0-1.758,0v2.236a.879.879,0,0,0,.879.879"/>
        <path id="Trazado_875368" data-name="Trazado 875368" d="M48.116,28.627a.879.879,0,0,0-.879.879v2.236a.879.879,0,0,0,1.758,0V29.506a.879.879,0,0,0-.879-.879"/>
        <path id="Trazado_875369" data-name="Trazado 875369" d="M48.995,19.738a.879.879,0,1,0-1.758,0v2.236a.879.879,0,1,0,1.758,0Z"/>
        <path id="Trazado_875370" data-name="Trazado 875370" d="M48.995,9.97a.879.879,0,1,0-1.758,0v2.236a.879.879,0,1,0,1.758,0Z"/>
        <path id="Trazado_875371" data-name="Trazado 875371" d="M56.29,37.434H43.569V11.541a2.1,2.1,0,0,0-2.093-2.093h-28.4a2.094,2.094,0,0,0-2.093,2.093V13.6a.879.879,0,1,0,1.757,0V11.541a.338.338,0,0,1,.336-.336h28.4a.337.337,0,0,1,.335.336V28.665l-6.372,5.789-2.294-2.632a.879.879,0,1,0-1.325,1.155l2.336,2.68a1.7,1.7,0,0,0,2.391.165l.027-.024,5.237-4.759v6.395H38.064a2.172,2.172,0,0,0-2.17,2.17v.671H13.077a.337.337,0,0,1-.335-.336V38.812L24.033,25.86a1.047,1.047,0,0,1,1.478-.1.911.911,0,0,1,.1.1l3.511,4.027a.879.879,0,1,0,1.325-1.155L26.939,24.7a2.806,2.806,0,0,0-3.959-.271,2.773,2.773,0,0,0-.271.271L12.741,36.137V17.7a.879.879,0,1,0-1.757,0V39.94a2.1,2.1,0,0,0,2.092,2.093H35.894v15.8A2.172,2.172,0,0,0,38.064,60H56.29a2.173,2.173,0,0,0,2.17-2.17V39.6a2.174,2.174,0,0,0-2.17-2.17m.412,20.4a.412.412,0,0,1-.412.412H38.064a.412.412,0,0,1-.412-.412V39.6a.413.413,0,0,1,.412-.412H56.29a.413.413,0,0,1,.412.412Z"/>
        <path id="Trazado_875372" data-name="Trazado 875372" d="M45.585,44.443l.714-.448v1.866a.879.879,0,1,0,1.758,0V43.995l.714.448a.879.879,0,0,0,.933-1.489l-2.059-1.292a.884.884,0,0,0-.934,0l-2.06,1.292a.879.879,0,0,0,.934,1.489"/>
        <path id="Trazado_875373" data-name="Trazado 875373" d="M48.77,52.992l-.714.447V51.573a.879.879,0,1,0-1.758,0v1.866l-.714-.447a.879.879,0,1,0-.942,1.484l.009,0,2.059,1.291a.884.884,0,0,0,.934,0l2.06-1.291a.879.879,0,0,0-.934-1.489Z"/>
        <path id="Trazado_875374" data-name="Trazado 875374" d="M54.232,48.25l-1.291-2.06a.879.879,0,0,0-1.5.925l.006.009.447.714H50.033a.879.879,0,1,0,0,1.758H51.9l-.447.714a.879.879,0,0,0,1.479.949l.01-.016,1.291-2.06A.882.882,0,0,0,54.232,48.25Z"/>
        <path id="Trazado_875375" data-name="Trazado 875375" d="M42.455,49.6h1.866a.879.879,0,1,0,0-1.758H42.455l.447-.714a.879.879,0,0,0-1.489-.933L40.122,48.25a.879.879,0,0,0,0,.934l1.291,2.059a.879.879,0,1,0,1.5-.918l-.01-.015Z"/>
      </g>
    </g>
  </g>
</svg>
